<?xml version="1.0" encoding="UTF-8"?>
<svg xmlns="http://www.w3.org/2000/svg" version="1.1" xmlns:xlink="http://www.w3.org/1999/xlink" viewBox="0 0 200 40">
  <defs>
    <style>
      .cls-1 {
        display: none;
        isolation: isolate;
      }

      .cls-2 {
        fill: none;
      }

      .cls-3 {
        fill: #f1f1f1;
      }

      .cls-4 {
        fill: #fcd600;
      }
    </style>
  </defs>
  <!-- Generator: Adobe Illustrator 28.7.5, SVG Export Plug-In . SVG Version: 1.2.0 Build 176)  -->
  <g>
    <g id="Layer_1">
      <image class="cls-1" width="250" height="50" transform="translate(-12.8 -2.6) scale(.9)" xlink:href="iconicon.png"/>
      <g>
        <path class="cls-3" d="M154.1,9.6c-1.3,0-2.3,1.2-2.3,2.7v23.8h0c0,0,0,.1,0,.2,0,1.5,1,2.7,2.3,2.7s2.3-1.2,2.3-2.7,0-.1,0-.2h0V12.3c0-1.5-1-2.7-2.3-2.7Z"/>
        <circle class="cls-3" cx="154.1" cy="4.8" r="2.5"/>
      </g>
      <g>
        <path class="cls-3" d="M45.5,9.4c-1.3,0-2.3,1.2-2.3,2.7v24h0c0,0,0,.2,0,.3,0,1.5,1,2.7,2.3,2.7s2.3-1.2,2.3-2.7,0-.2,0-.3h0V12.1c0-1.5-1-2.7-2.3-2.7Z"/>
        <circle class="cls-3" cx="45.5" cy="4.9" r="2.5"/>
      </g>
      <path class="cls-3" d="M13,4.4c-2.1-2.1-5-2.1-5.6-2.1s-.2,0-.5,0c-3.9.1-5.8,2.6-5.8,2.6-.3.4-.8,1.2-1.1,2.4v29.7h0c.2,1.3,1.1,2.3,2.3,2.3s2.1-1,2.3-2.3h0v-14.5h5.5v14.1h0c0,1.4,1.1,2.5,2.3,2.5s2.2-1.1,2.3-2.5h0V7.3c-.2-.7-.7-1.9-1.7-2.9ZM4.6,18v-8.5c.1-1.2.7-2.2,1.4-2.6.2-.1.8-.3,1.4-.3s1.1.1,1.3.2c.7.3,1.3,1.4,1.4,2.8v8.4h-5.5Z"/>
      <path class="cls-3" d="M100.1,4.1c-2.1-2.1-5-2.1-5.6-2.1s-.2,0-.5,0c-4,0-5.8,2.6-5.8,2.6-.3.4-.8,1.3-1,2.4h0v29.7c0,1.5,1,2.7,2.3,2.7s2.3-1.2,2.3-2.7v-14.2h5.4v14.2h0c.1,1.3,1.1,2.4,2.3,2.4s2.1-1.1,2.3-2.4h0V7c-.2-.7-.7-1.9-1.7-2.9ZM97.2,18h-5.4v-8.2c0-1.4.4-2.7,1.3-3.2.5-.3,1.3-.3,1.4-.3.3,0,.8,0,1.3.2.9.4,1.4,1.5,1.4,2.7v8.8Z"/>
      <path class="cls-3" d="M121,9.6c-1.3,0-2.3,1.2-2.3,2.7v20.6c-.1.8-.6,1.5-1.2,1.9-.5.3-1.1.3-1.4.3s-.8,0-1.3-.2c-.9-.4-1.4-1.5-1.4-2.7V12.4h0s0,0,0-.1c0-1.5-1-2.7-2.3-2.7s-2.3,1.2-2.3,2.7,0,0,0,.1h0v22c.2.7.7,1.9,1.7,2.9,2.1,2.1,5,2.1,5.5,2.1h.5c3.8-.1,5.7-2.6,5.7-2.6.3-.4.8-1.2,1.1-2.4V12.3c0-1.5-1-2.7-2.3-2.7Z"/>
      <path class="cls-3" d="M35.2,10.8c-1.2-1.1-2.7-1-2.9-1h-8.4c-.2,0-.9,0-1.6.6-.7.7-.7,1.5-.7,1.6h0v24.5h0c0,1.4,1.1,2.6,2.3,2.6s2.2-1.2,2.3-2.6h0V14.2h6.1v22.2c0,1.5.9,2.7,2,2.7s2-1.2,2-2.7V13.7c0-.2,0-1.8-1.1-2.9Z"/>
      <path class="cls-3" d="M145.1,4.8c0-1.5-.9-2.7-2-2.7s-2,1.2-2,2.7,0,.1,0,.2h0v4.7h-6.3c-.3,0-2.3.3-3.5,2.1-.6.8-.7,1.6-.8,2.2h0v.5h0v19.1h0c.2.7.8,2.2,2.3,3.4,2,1.7,4.2,2,4.9,2,.4,0,3.8.3,5.9-2.3.6-.8,1-1.7,1-1.7.3-.5.5-.9.5-1.3h0V5h0c0,0,0-.1,0-.2ZM138.1,34.7c-1.8,0-3.4-1.6-3.3-3.6v-15.1c.1-.2.2-.7.6-1.2.3-.4.7-.6.9-.6h4.8v17.7c-.2,1.6-1.4,2.8-3,2.8Z"/>
      <path class="cls-3" d="M80.1,36.4s0,0,0,0,0,0,0,0V13c0-.3-.5-1.4-1.5-2.2-1.3-.9-2.8-.8-3.1-.8h-7.8v3.7c0-1.8-.6-3.3-1.6-3.7,0,0-.3,0-.6,0h-7.7c-.2,0-1.3,0-2.1.9-.7.8-.8,1.7-.8,1.9v23.5h0c0,0,0,.1,0,.2,0,1.5,1,2.7,2.3,2.7s2.3-1.2,2.3-2.7,0-.1,0-.2h0V14.2h6v22.2c0,1.5.9,2.7,2,2.7s2-1.2,2-2.7V14.3h6v22.2h0c0,1.4,1.1,2.6,2.3,2.6s2.2-1.2,2.3-2.6h0Z"/>
      <line class="cls-2" x1="199.3" y1="24.8" x2="199.3" y2="36.1"/>
      <polyline class="cls-3" points="199.3 36.1 199.3 34.7 197.1 34.7 199.3 36.1"/>
      <circle class="cls-4" cx="171.3" cy="25.2" r="11"/>
      <path d="M176.8,22.2c-1.5-.4-3.1.6-3.6,2.3-.3.8-.2,1.7,0,2.4.3.8.9,1.3,1.6,1.5.2,0,.5,0,.7,0h0c.5,0,1-.2,1.5-.5.7-.4,1.2-1.1,1.4-1.9.5-1.7-.3-3.5-1.8-3.9Z"/>
      <path class="cls-4" d="M167.5,18.9c3.2-1.5,2-8.9.7-12.8-.4-1.1-.7-1.9-1.2-1.9-1.3,0-2.5,5.3-2.6,5.7-1,4.7-.6,9.5-.6,9.5,0,0,2.5,0,3.8-.5h0Z"/>
      <path class="cls-4" d="M175,18.9c-3.2-1.5-2-8.9-.7-12.8.4-1.1.7-1.9,1.2-1.9,1.3,0,2.5,5.3,2.6,5.7,1,4.7.6,9.5.6,9.5,0,0-2.5,0-3.8-.5h0Z"/>
      <path class="cls-3" d="M197.5,18.8c1.4,0,2.5-1.1,2.5-2.5v-3c0-.4,0-1.5-1-2.4-1.3-1.4-3-1.3-3.3-1.3h-6.2c-.3,0-2,.3-3.1,1.9-.9,1.2-.9,2.6-.9,3v9.9c0,1.4,1.1,2.5,2.4,2.5h5.5c.3,0,.6.2.9.5.7.6.7,1.2.7,1.4v3.7c0,.6-.2,1.3-.6,1.6-.4.3-.9.3-1.1.3h-2.1c-.3,0-.6-.2-.9-.5-.3-.4-.4-.8-.4-1.1v-.6c0-1.4-1.1-2.5-2.5-2.5s-2.5,1.1-2.5,2.5v2.5c0,.5.6,1.9,1.9,3,1.1.8,2.2,1.2,2.7,1.2h7.6c1.6,0,2.9-1.2,2.9-2.7v-11h0c0-1.3-1.2-2.3-2.7-2.4h0s-6.8,0-6.8,0c-.2,0-.5-.2-.7-.4s-.3-.5-.3-.7v-5.8h0v-.5c0-.2.1-.5.3-.7.4-.4,1.1-.4,1.1-.4h3.3c.2,0,.4.1.5.3.3.4.3.9.3.9v.7c0,1.4,1.1,2.5,2.5,2.5Z"/>
      <path d="M169.3,24.5c-.5-1.7-2.1-2.7-3.6-2.3-1.5.4-2.3,2.2-1.8,3.9.2.8.7,1.5,1.4,1.9.5.3,1,.5,1.5.5h0c.2,0,.5,0,.7-.1.7-.2,1.3-.7,1.6-1.5.3-.7.4-1.6,0-2.4Z"/>
    </g>
  </g>
</svg>