<?xml version="1.0" encoding="UTF-8"?>
<svg xmlns="http://www.w3.org/2000/svg" version="1.1" viewBox="0 0 480 480">
  <defs>
    <style>
      .cls-1 {
        fill: #fff;
      }

      .cls-2 {
        fill: #1f1f1f;
        stroke: #1f1f1f;
        stroke-miterlimit: 10;
      }
    </style>
  </defs>
  <!-- Generator: Adobe Illustrator 28.7.5, SVG Export Plug-In . SVG Version: 1.2.0 Build 176)  -->
  <g>
    <g id="Layer_1">
      <circle class="cls-2" cx="240" cy="240.7" r="240"/>
      <circle class="cls-1" cx="240" cy="240.7" r="159"/>
      <circle class="cls-2" cx="300.5" cy="178.9" r="151.5"/>
      <path class="cls-1" d="M323.7,147.1c.8-17.3,15.1-31.1,32.6-31.1,0-.5,0-1,0-1.5-18,0-32.7-14.6-32.7-32.6-.5,0-1,0-1.5,0,0,17.5-13.8,31.8-31.2,32.6,0,0,0,0,0,0,0,.5,0,1,0,1.5,16.8.8,30.3,14.3,31.1,31.1.5,0,1,0,1.5,0s0,0,0,0Z"/>
      <path class="cls-1" d="M250.8,221.5c.6-13.8,11.7-24.7,25.4-24.7,0-.4,0-.8,0-1.2-14,0-25.4-11.6-25.4-25.9-.4,0-.8,0-1.2,0,0,13.9-10.8,25.3-24.2,25.9,0,0,0,0,0,0,0,.4,0,.8,0,1.2,13.1.6,23.6,11.3,24.2,24.7.4,0,.8,0,1.2,0s0,0,0,0Z"/>
      <path class="cls-1" d="M356.4,270.1c.4-8.5,7.3-15.2,15.7-15.2,0-.2,0-.5,0-.7-8.7,0-15.7-7.2-15.7-16-.2,0-.5,0-.7,0,0,8.6-6.7,15.6-15,15.9,0,0,0,0,0,0,0,.3,0,.5,0,.8,8.1.4,14.6,7,15,15.2.2,0,.5,0,.7,0s0,0,0,0Z"/>
    </g>
  </g>
</svg>