<?xml version="1.0" encoding="UTF-8"?>
<svg xmlns="http://www.w3.org/2000/svg" version="1.1" xmlns:xlink="http://www.w3.org/1999/xlink" viewBox="0 0 480 480">
  <defs>
    <style>
      .cls-1 {
        stroke: #fff;
      }

      .cls-1, .cls-2 {
        fill: #fff;
      }

      .cls-1, .cls-3 {
        stroke-miterlimit: 10;
      }

      .cls-4 {
        display: none;
      }

      .cls-3 {
        fill: #1f1f1f;
        stroke: #1f1f1f;
      }
    </style>
  </defs>
  <!-- Generator: Adobe Illustrator 28.7.5, SVG Export Plug-In . SVG Version: 1.2.0 Build 176)  -->
  <g>
    <g id="moon" class="cls-4">
      <circle class="cls-2" cx="240" cy="240.7" r="159"/>
      <circle class="cls-3" cx="300.5" cy="178.9" r="151.5"/>
      <path class="cls-2" d="M323.7,147.1c.8-17.3,15.1-31.1,32.6-31.1,0-.5,0-1,0-1.5-18,0-32.7-14.6-32.7-32.6-.5,0-1,0-1.5,0,0,17.5-13.8,31.8-31.2,32.6,0,0,0,0,0,0,0,.5,0,1,0,1.5,16.8.8,30.3,14.3,31.1,31.1.5,0,1,0,1.5,0s0,0,0,0Z"/>
      <path class="cls-2" d="M250.8,221.5c.6-13.8,11.7-24.7,25.4-24.7,0-.4,0-.8,0-1.2-14,0-25.4-11.6-25.4-25.9-.4,0-.8,0-1.2,0,0,13.9-10.8,25.3-24.2,25.9,0,0,0,0,0,0,0,.4,0,.8,0,1.2,13.1.6,23.6,11.3,24.2,24.7.4,0,.8,0,1.2,0s0,0,0,0Z"/>
      <path class="cls-2" d="M356.4,270.1c.4-8.5,7.3-15.2,15.7-15.2,0-.2,0-.5,0-.7-8.7,0-15.7-7.2-15.7-16-.2,0-.5,0-.7,0,0,8.6-6.7,15.6-15,15.9,0,0,0,0,0,0,0,.3,0,.5,0,.8,8.1.4,14.6,7,15,15.2.2,0,.5,0,.7,0s0,0,0,0Z"/>
    </g>
    <g id="sun">
      <path class="cls-1" d="M240,.7C107.5.7,0,108.2,0,240.7s107.5,240,240,240,240-107.5,240-240S372.5.7,240,.7ZM242.8,456.5c-119.2,0-215.8-96.6-215.8-215.8S123.6,24.9,242.8,24.9s215.8,96.6,215.8,215.8-96.6,215.8-215.8,215.8Z"/>
      <image class="cls-4" width="200" height="200" transform="translate(-223.1 -214.4) scale(4.6 4.6)" xlink:href="sun.png"/>
      <circle class="cls-1" cx="240.4" cy="240.7" r="112.7"/>
      <polygon class="cls-1" points="240 51.6 220.2 104.7 259.8 104.7 240 51.6"/>
      <polygon class="cls-1" points="240 429.8 259.8 376.8 220.2 376.8 240 429.8"/>
      <polygon class="cls-1" points="50.1 243.4 103.1 263.1 103.1 223.6 50.1 243.4"/>
      <polygon class="cls-1" points="429 243.4 376 223.7 376 263.2 429 243.4"/>
      <polygon class="cls-1" points="103.1 109.5 126.7 161 154.6 133 103.1 109.5"/>
      <polygon class="cls-1" points="106.4 376.8 157.8 353.2 129.9 325.3 106.4 376.8"/>
      <polygon class="cls-1" points="371.2 377.5 347.6 326 319.7 354 371.2 377.5"/>
      <polygon class="cls-1" points="374.4 108.8 322.9 132.3 350.9 160.2 374.4 108.8"/>
    </g>
  </g>
</svg>